<svg xmlns="http://www.w3.org/2000/svg" viewBox="0 0 400 300"><g id="_386_colosseum_flatline" data-name="#386_colosseum_flatline"><rect x="39.4" y="45.82" width="321.2" height="203.86" fill="#68e1fd"/><path d="M91.45,196.1c-.57-1.16-2.17-1.89-3.19-1.12-1.38-2.21-4.48-2.72-7-2.07s-4.72,2.17-7.1,3.25c-1.71.78-3.62,1.4-4.76,2.88a18.88,18.88,0,0,0-1.57,3.11c-1.33,2.61-3.84,4.39-6.25,6-.83-1.53-3.09-1.37-4.7-.72-2.83,1.12-7.13-.72-9,1.23-3.39-4.84-6.36-3.56-8.06-.45v29.46l46.71-5.26q3.1-16.2,5.23-32.57A6.67,6.67,0,0,0,91.45,196.1Z" fill="#e6e7e8"/><path d="M39.77,238.22a.49.49,0,0,1-.5-.5V208.26a.46.46,0,0,1,.06-.23c1-1.87,2.39-2.95,3.86-3s3.17.91,4.73,3c1.23-.85,3-.76,4.7-.67a9.94,9.94,0,0,0,4.06-.3c1.78-.71,3.92-.79,5,.5,2.14-1.48,4.46-3.18,5.69-5.59.17-.34.32-.7.47-1A9.33,9.33,0,0,1,69,198.74a9.52,9.52,0,0,1,4.08-2.65l.88-.38c.79-.36,1.58-.79,2.35-1.19a22.24,22.24,0,0,1,4.82-2.09c2.41-.62,5.62-.26,7.29,1.9a2.28,2.28,0,0,1,1.42-.09,3.14,3.14,0,0,1,2.07,1.64,7.25,7.25,0,0,1,.31,4.08C90.8,210.82,89,221.79,87,232.56a.5.5,0,0,1-.43.4l-46.71,5.26Zm.5-29.83v28.78L86.06,232c2-10.63,3.76-21.46,5.15-32.18a6.08,6.08,0,0,0-.21-3.51,2.15,2.15,0,0,0-1.4-1.11,1.23,1.23,0,0,0-1,.17.53.53,0,0,1-.4.1.52.52,0,0,1-.33-.23c-1.29-2.08-4.25-2.42-6.46-1.86a21.58,21.58,0,0,0-4.6,2c-.78.41-1.59.84-2.41,1.22l-.89.39a8.86,8.86,0,0,0-3.69,2.34,8.66,8.66,0,0,0-1,1.91c-.16.38-.32.75-.5,1.11-1.42,2.8-4.08,4.63-6.42,6.24a.48.48,0,0,1-.4.08.45.45,0,0,1-.32-.25c-.65-1.2-2.57-1.1-4.08-.5a10.73,10.73,0,0,1-4.48.37c-1.79-.09-3.47-.18-4.38.75a.53.53,0,0,1-.4.14.48.48,0,0,1-.37-.21c-1.43-2-2.85-3-4.17-3C42.16,206.06,41.11,206.91,40.27,208.39Zm46.21,24.07h0Z" fill="#231f20"/><path d="M322.74,210.75a6.33,6.33,0,0,1,5.23,4.16,10.38,10.38,0,0,1,4.59,3.64,2.44,2.44,0,0,0,.61.67,2.06,2.06,0,0,0,1.1.2,6,6,0,0,1,3.4.81,2.36,2.36,0,0,1,.8,3.1,7.12,7.12,0,0,1,5.07.48,11.11,11.11,0,0,1,1.5-7c.84-1.38,2.53-2.69,3.94-1.89a1.9,1.9,0,0,1,3.74-.24c1.39.34,2.27-1.36,3.19-2.45a9.74,9.74,0,0,1,3.88-2.4c.33-.14.82-.23,1,.1a.69.69,0,0,1,0,.35c-.21,2.87-.3,5.74-.51,8.61V239c-.38,0-.75,0-1.13,0H315c0,.27,0,.54,0,.81.06-5.3-1.31-10.5-2.05-15.74-.67-4.69-1-10.08,1.11-14.49C315.89,205.77,321.38,207.08,322.74,210.75Z" fill="#e6e7e8"/><path d="M315.05,240.29a.5.5,0,0,1-.5-.48c0-.14,0-.28,0-.43V239a.49.49,0,0,1,0-.12,65.58,65.58,0,0,0-1.25-10c-.28-1.56-.57-3.17-.8-4.77-.62-4.4-1.06-10.06,1.16-14.77a4.35,4.35,0,0,1,4.28-2.57,6,6,0,0,1,5.15,3.51,6.79,6.79,0,0,1,5.28,4.24,11,11,0,0,1,4.6,3.73,2,2,0,0,0,.46.53,1.62,1.62,0,0,0,.83.13,6.4,6.4,0,0,1,3.7.91,3.14,3.14,0,0,1,1.3,2.82A7.73,7.73,0,0,1,343,223a11.41,11.41,0,0,1,1.64-6.46c.89-1.49,2.52-2.68,4-2.3a2.39,2.39,0,0,1,4.47,0c.62,0,1.16-.66,1.87-1.6.19-.25.37-.5.56-.71a10,10,0,0,1,4.07-2.54c.74-.31,1.37-.17,1.61.35a1.13,1.13,0,0,1,.08.6c-.11,1.43-.18,2.86-.26,4.3s-.15,2.87-.25,4.3V239a.48.48,0,0,1-.15.36.54.54,0,0,1-.36.14h-.41l-.71,0h-43.6v.32a.49.49,0,0,1-.49.49Zm.49-1.81h43.61l.63,0V218.9c.11-1.47.18-2.9.26-4.32s.15-2.89.25-4.33v0a.74.74,0,0,0-.31.08,9.42,9.42,0,0,0-3.7,2.26l-.52.67c-.77,1-1.74,2.29-3.17,2a.51.51,0,0,1-.37-.38,1.45,1.45,0,0,0-1.45-1.09,1.47,1.47,0,0,0-1.31,1.27.49.49,0,0,1-.26.4.54.54,0,0,1-.48,0c-1.15-.65-2.59.61-3.26,1.71a10.53,10.53,0,0,0-1.43,6.67.52.52,0,0,1-.21.47.49.49,0,0,1-.51,0,6.62,6.62,0,0,0-4.71-.45.5.5,0,0,1-.55-.19.51.51,0,0,1,0-.58,1.86,1.86,0,0,0-.68-2.4,5.42,5.42,0,0,0-3.11-.72,2.51,2.51,0,0,1-1.36-.28,2.39,2.39,0,0,1-.71-.75,10.09,10.09,0,0,0-4.42-3.52.47.47,0,0,1-.28-.3,5.82,5.82,0,0,0-4.81-3.82.5.5,0,0,1-.42-.32,5,5,0,0,0-4.37-3.15,3.4,3.4,0,0,0-3.34,2c-2.1,4.48-1.68,9.95-1.07,14.21.23,1.58.51,3.18.79,4.74A67.13,67.13,0,0,1,315.54,238.48Z" fill="#231f20"/><polygon points="39.4 236.78 80.03 232.04 317.95 232.04 360.6 232.04 360.6 254.18 39.4 254.18 39.4 236.78" fill="#fff"/><path d="M360.6,254.68H39.4a.5.5,0,0,1-.5-.5v-17.4a.5.5,0,0,1,.44-.5L80,231.54H360.6a.5.5,0,0,1,.5.5v22.14A.5.5,0,0,1,360.6,254.68Zm-320.7-1H360.1V232.54H80L39.9,237.22Z" fill="#231f20"/><path d="M360.6,254.68H39.4a.5.5,0,0,1-.5-.5V45.82a.5.5,0,0,1,.5-.5H360.6a.5.5,0,0,1,.5.5V254.18A.5.5,0,0,1,360.6,254.68Zm-320.7-1H360.1V46.32H39.9Z" fill="#231f20"/><rect x="200" y="152.82" width="11.24" height="8.07" fill="#d1d3d4"/><path d="M211.24,161.4H200a.5.5,0,0,1-.5-.5v-8.08a.5.5,0,0,1,.5-.5h11.24a.5.5,0,0,1,.5.5v8.08A.5.5,0,0,1,211.24,161.4Zm-10.74-1h10.24v-7.08H200.5Z" fill="#231f20"/><path d="M218.28,164.13V149.49s29.38,0,55.47,5.67c30.6,6.65,42.94,19.11,42.94,19.11L318,189.05l-60.25,1.56-36-22.21Z" fill="#fff"/><path d="M257.7,191.11a.48.48,0,0,1-.26-.07l-36-22.21a.37.37,0,0,1-.13-.12l-3.38-4.27a.47.47,0,0,1-.11-.31V149.49a.5.5,0,0,1,.5-.5c.29,0,29.73.07,55.57,5.68,15.87,3.45,26.75,8.49,33.09,12.11a50.08,50.08,0,0,1,10.1,7.14.5.5,0,0,1,.14.31L318.45,189a.46.46,0,0,1-.13.37.46.46,0,0,1-.35.17l-60.26,1.56ZM222,168l35.83,22.08,59.58-1.54L316.2,174.5c-1.38-1.3-14.1-12.66-42.56-18.85-23.89-5.19-50.87-5.62-54.86-5.65v14Z" fill="#231f20"/><path d="M310.35,185.46V179l-3.66-1.88v7c-1.68-.6-3.56-1.23-5.67-1.88v-6.85l-3.82-1.85v7.57q-3.27-.91-7.12-1.86v-7.76l-4.51-1.83v8.56c-1.23-.28-2.49-.55-3.8-.81-1.6-.33-3.2-.63-4.78-.91V167.4l-5.35-.94v9.13c-3.46-.52-6.84-.93-10.09-1.26v-9.49l-5.35-.94v9.94c-3.73-.29-7.23-.48-10.41-.6,0-3.94-.06-11.24-.06-11.24l-5.17-.22-.14,11.32c-7.73-.11-12.57.18-12.57.18s-.7,18.16,1.22,26.88S258.54,232,258.54,232H318v-43A49.15,49.15,0,0,0,310.35,185.46Z" fill="#fff"/><path d="M318,232.54H258.54a.55.55,0,0,1-.32-.12c-1.13-.95-27.7-23.37-29.64-32.15s-1.26-26.26-1.23-27a.5.5,0,0,1,.47-.47c.05,0,4.74-.29,12.11-.2l.13-10.82a.48.48,0,0,1,.16-.36.47.47,0,0,1,.36-.13l5.17.22a.5.5,0,0,1,.48.49c0,.07.07,6.79.06,10.77,3.12.12,6.27.3,9.41.54v-9.4a.46.46,0,0,1,.18-.38.46.46,0,0,1,.4-.11l5.35.94a.5.5,0,0,1,.42.49v9c3.05.32,6.1.7,9.09,1.14v-8.55a.52.52,0,0,1,.17-.39.56.56,0,0,1,.41-.11l5.35.94a.51.51,0,0,1,.42.5V176q2.17.39,4.38.84c1.1.22,2.16.45,3.2.67v-7.93a.52.52,0,0,1,.22-.41.52.52,0,0,1,.47-.05l4.51,1.83a.51.51,0,0,1,.31.46v7.37c2.11.52,4.17,1.05,6.12,1.6V173.5a.5.5,0,0,1,.24-.43.51.51,0,0,1,.48,0l3.82,1.86a.5.5,0,0,1,.28.45v6.48c1.63.51,3.19,1,4.67,1.54v-6.24a.49.49,0,0,1,.24-.42.48.48,0,0,1,.49,0l3.66,1.87a.5.5,0,0,1,.27.45v6.11a48.32,48.32,0,0,1,7.37,3.51.48.48,0,0,1,.23.42v43A.5.5,0,0,1,318,232.54Zm-59.22-1h58.72V189.33a55.76,55.76,0,0,0-7.29-3.41.49.49,0,0,1-.31-.46v-6.14L307.19,178v6.13a.51.51,0,0,1-.21.41.5.5,0,0,1-.46.06c-1.76-.63-3.66-1.26-5.65-1.87a.5.5,0,0,1-.35-.48v-6.54l-2.82-1.37v6.78a.48.48,0,0,1-.2.4.5.5,0,0,1-.44.09c-2.24-.64-4.63-1.26-7.1-1.86a.5.5,0,0,1-.38-.49v-7.42l-3.51-1.42v7.81a.53.53,0,0,1-.18.39.51.51,0,0,1-.43.09c-1.22-.27-2.48-.54-3.79-.8-1.6-.33-3.19-.63-4.77-.91a.49.49,0,0,1-.41-.49v-8.64l-4.35-.77v8.54a.53.53,0,0,1-.18.38.48.48,0,0,1-.4.11c-3.3-.49-6.69-.91-10.06-1.26a.49.49,0,0,1-.45-.49v-9.07l-4.35-.77v9.35a.51.51,0,0,1-.16.37.49.49,0,0,1-.38.13c-3.46-.27-7-.47-10.39-.6a.5.5,0,0,1-.48-.5c0-3.31,0-9.08,0-10.76l-4.19-.18-.13,10.81a.47.47,0,0,1-.15.35.43.43,0,0,1-.35.14c-6.3-.09-10.71.09-12.08.16-.09,2.87-.5,18.5,1.22,26.29C231.36,208.19,256.61,229.74,258.73,231.54Z" fill="#231f20"/><path d="M246.91,200V185.25c0-4.08,2.56-5.12,5.68-5.14,3.42,0,4.33,2.68,4.48,4.86s0,15.27,0,15.27Z" fill="#231f20"/><path d="M257.07,200.77h0l-10.17-.21a.52.52,0,0,1-.51-.53V185.25c0-3.79,2-5.65,6.21-5.67h0c3,0,4.73,1.9,5,5.35.15,2.18,0,14.78,0,15.32a.51.51,0,0,1-.16.37A.51.51,0,0,1,257.07,200.77Zm-9.63-1.26,9.1.19c0-2.48.13-12.81,0-14.69-.2-2.9-1.52-4.37-3.91-4.37h0c-3.57,0-5.16,1.44-5.16,4.61Z" fill="#231f20"/><path d="M231.09,199.68V184.9c0-4.09,2.56-5.12,5.69-5.14,3.41,0,4.32,2.67,4.47,4.86s0,15.27,0,15.27Z" fill="#231f20"/><path d="M241.25,200.42h0l-10.16-.21a.53.53,0,0,1-.52-.53V184.9c0-3.79,2-5.65,6.22-5.67,3,0,4.76,1.88,5,5.35.15,2.18,0,14.78,0,15.32a.52.52,0,0,1-.16.37A.51.51,0,0,1,241.25,200.42Zm-9.63-1.26,9.11.19c0-2.48.13-12.81,0-14.7-.2-2.89-1.51-4.36-3.91-4.36h0c-3.57,0-5.16,1.44-5.16,4.61Z" fill="#231f20"/><path d="M318,211.71a.3.3,0,0,1-.13,0c-22.84-6.28-69.86-4.43-70.33-4.41a.5.5,0,0,1-.53-.49.51.51,0,0,1,.49-.53c.47,0,47.65-1.88,70.64,4.45a.51.51,0,0,1-.14,1Z" fill="#231f20"/><path d="M188.53,158.83s31-1.5,40.54-1.31v4.69s1.13,1.88.94,3a44.71,44.71,0,0,0,0,4.88c0,.19,9.37,28.16,9.37,28.16L246.53,232H203.92s-23.09-41.49-20.83-54S188.53,158.83,188.53,158.83Z" fill="#fff"/><path d="M246.53,232.54H203.92a.51.51,0,0,1-.44-.26c-.94-1.7-23.15-41.78-20.89-54.3s5.45-19.29,5.49-19.36a.5.5,0,0,1,.42-.29c.31,0,31.11-1.49,40.58-1.31a.49.49,0,0,1,.49.5v4.56a5.94,5.94,0,0,1,.93,3.21,34.26,34.26,0,0,0,0,4.05c0,.31,0,.55,0,.69.32,1.15,6.83,20.58,9.34,28.06L247,231.93a.53.53,0,0,1-.1.42A.51.51,0,0,1,246.53,232.54Zm-42.31-1h41.69l-7-33.19c-9.41-28-9.39-28.17-9.37-28.31s0-.31,0-.66a27.87,27.87,0,0,1,0-4.25,5.49,5.49,0,0,0-.88-2.66.59.59,0,0,1-.07-.26V158c-9.43-.13-36.52,1.15-39.71,1.31a88.09,88.09,0,0,0-5.28,18.84C181.47,189.82,202.28,228,204.22,231.54Z" fill="#231f20"/><polyline points="249.39 202.93 255.91 228.09 258.54 228.09 258.54 232.04 206.27 232.04 205.75 197.99 249.39 197.99" fill="#fff"/><path d="M258.54,232.54H206.27a.5.5,0,0,1-.5-.5l-.52-34a.54.54,0,0,1,.14-.36.51.51,0,0,1,.36-.15h43.64a.5.5,0,0,1,0,1H206.26l.5,33H258v-2.95h-2.12a.5.5,0,0,1-.49-.37l-6.52-25.16a.5.5,0,1,1,1-.25l6.42,24.78h2.24a.5.5,0,0,1,.5.5V232A.5.5,0,0,1,258.54,232.54Z" fill="#231f20"/><path d="M216.07,208.5h0a6.71,6.71,0,0,1,6.71,6.71V232a0,0,0,0,1,0,0H209.36a0,0,0,0,1,0,0V215.21A6.71,6.71,0,0,1,216.07,208.5Z" fill="#231f20"/><path d="M222.79,232.54H209.36a.51.51,0,0,1-.5-.5V215.21a7.22,7.22,0,0,1,14.43,0V232A.51.51,0,0,1,222.79,232.54Zm-12.93-1h12.43V215.21a6.22,6.22,0,0,0-12.43,0Z" fill="#231f20"/><polygon points="250.31 202.93 203.57 202.93 203.57 192.5 250.31 192.5 249.39 197.99 250.31 202.93" fill="#fff"/><path d="M250.31,203.43H203.57a.5.5,0,0,1-.5-.5V192.5a.5.5,0,0,1,.5-.5h46.74a.53.53,0,0,1,.38.18.49.49,0,0,1,.11.4l-.9,5.41.9,4.85a.5.5,0,0,1-.49.59Zm-46.24-1h45.64l-.81-4.35a.48.48,0,0,1,0-.17l.82-4.91H204.07Z" fill="#231f20"/><path d="M203,190.61V177.24c0-3-3.1-5.78-6.9-5s-6,2-6.41,3.87,0,14.5,0,14.5Z" fill="#231f20"/><path d="M203,191.11H189.7a.5.5,0,0,1-.5-.48c0-.52-.42-12.76,0-14.63.47-2,2.69-3.41,6.8-4.25a6.42,6.42,0,0,1,5.4,1.27,5.47,5.47,0,0,1,2.1,4.22v13.37A.5.5,0,0,1,203,191.11Zm-12.82-1h12.32V177.24a4.49,4.49,0,0,0-1.73-3.45,5.47,5.47,0,0,0-4.57-1.06c-3.63.74-5.66,1.91-6,3.49C189.87,177.61,190.07,186.29,190.19,190.11Z" fill="#231f20"/><path d="M189.28,163.84a.51.51,0,0,1-.5-.47.5.5,0,0,1,.47-.53c.29,0,29.16-2,39.86-1.13a.5.5,0,0,1-.08,1c-10.63-.83-39.43,1.11-39.72,1.12Z" fill="#231f20"/><path d="M189.28,168.9a.51.51,0,0,1-.5-.43.5.5,0,0,1,.44-.56c8.65-1.12,40.4-1.32,40.72-1.32h0a.5.5,0,0,1,.5.5.5.5,0,0,1-.5.5c-.32,0-32,.2-40.6,1.31Z" fill="#231f20"/><polygon points="181.4 148.51 190.59 157.52 192.28 191.68 175.95 190.55 181.4 148.51" fill="#231f20"/><path d="M192.28,192.18h0l-16.33-1.13a.47.47,0,0,1-.35-.18.48.48,0,0,1-.11-.38l5.44-42.05a.5.5,0,0,1,.33-.41.53.53,0,0,1,.52.12l9.19,9a.48.48,0,0,1,.15.33l1.69,34.17a.5.5,0,0,1-.5.52Zm-15.76-2.09,15.24,1-1.66-33.4-8.34-8.17Z" fill="#231f20"/><polygon points="160.89 109.49 164.31 112.66 164.31 128.24 164.31 131.99 173.32 152.82 154.93 152.82 154.93 117.16 160.89 109.49" fill="#231f20"/><path d="M173.32,153.32H154.93a.5.5,0,0,1-.5-.5V117.16a.57.57,0,0,1,.1-.31l6-7.67a.51.51,0,0,1,.74-.06l3.42,3.17a.47.47,0,0,1,.16.37v19.23l9,20.74a.49.49,0,0,1-.46.69Zm-17.89-1h17.13l-8.7-20.13a.49.49,0,0,1-.05-.2V112.87L161,110.23l-5.52,7.1Z" fill="#231f20"/><path d="M137.28,76.24s5.26,4.41,5.54,4.83a17.66,17.66,0,0,1,.8,2.68l4,3.38L157,112.61l-19.76,2.67-1.78-29.7Z" fill="#231f20"/><path d="M137.28,115.78a.51.51,0,0,1-.31-.11.47.47,0,0,1-.18-.36L135,85.61a.62.62,0,0,1,0-.13l1.78-9.33a.51.51,0,0,1,.33-.38.49.49,0,0,1,.49.09c1.59,1.34,5.34,4.5,5.63,4.94a13.58,13.58,0,0,1,.83,2.67l3.86,3.28a.43.43,0,0,1,.15.2l9.43,25.48a.52.52,0,0,1,0,.44.49.49,0,0,1-.36.23l-19.76,2.68ZM136,85.61l1.75,29.11,18.61-2.52-9.17-24.78-3.89-3.29a.47.47,0,0,1-.16-.27,16.22,16.22,0,0,0-.73-2.51c-.22-.28-2.53-2.27-4.79-4.18Z" fill="#231f20"/><path d="M80,232V211.2s-1.31-1.88,0-3.38l1.13-3.19.15-19.15,2.38-8.25L84.16,129c.11-.66-2.37-4.74-2.36-3.76,0,2.12,2.93-16.33,15.32-27.4S134.84,78.3,134.84,78.3l2.44-2.06L138.41,80l2.07,5.82,3,4.32,3.38,22.34s9-2.23,14-3l-.52,9-.09,4.56-1.6.89V150s18.59-1.31,22.72-1.49l.93,39.6s19.15.19,22.72-.37v7.65s2.62-.89,2.62.42.48-.61-.42,3.1c-.07.32,1.64,13.89,1.64,13.89s6.51,11.33,7.7,15.39a5.51,5.51,0,0,1,0,3.85Z" fill="#fff"/><path d="M216.59,232.54H80a.51.51,0,0,1-.5-.5V211.35a3.28,3.28,0,0,1,.06-3.78l1.07-3,.15-19.06a.66.66,0,0,1,0-.14l2.38-8.19L83.66,129A11.17,11.17,0,0,0,82,125.89a.57.57,0,0,1-.26,0c-.21,0-.46-.16-.46-.66a.62.62,0,0,1,.26-.56c.06-.19.13-.42.19-.65,1.26-4.37,5.09-17.68,15-26.57,12-10.68,36.12-19,37.81-19.59l2.37-2a.5.5,0,0,1,.47-.1.47.47,0,0,1,.33.34l1.13,3.75,2,5.73,3,4.26a.6.6,0,0,1,.08.21l3.3,21.8c2-.49,9.22-2.21,13.55-2.85a.48.48,0,0,1,.41.12.5.5,0,0,1,.16.4l-.52,9-.09,4.54a.5.5,0,0,1-.26.42l-1.34.75v25.25c3.08-.21,18.5-1.29,22.19-1.45a.46.46,0,0,1,.37.13.52.52,0,0,1,.16.36l.92,39.12c3,0,19,.12,22.15-.38a.52.52,0,0,1,.58.5v7a2.92,2.92,0,0,1,2.16.14,1.09,1.09,0,0,1,.46.94,1.45,1.45,0,0,0,0,.32c.19.22.19.22-.45,2.89,0,.47,1,8.37,1.64,13.61.65,1.14,6.54,11.49,7.69,15.42a6,6,0,0,1,0,4.21A.51.51,0,0,1,216.59,232.54Zm-136.06-1H216.24a5.78,5.78,0,0,0-.13-3.21c-1.16-4-7.58-15.17-7.65-15.28a.6.6,0,0,1-.06-.19c-1.73-13.66-1.66-14-1.63-14.07.29-1.19.47-2,.52-2.24a1.68,1.68,0,0,1-.12-.74c0-.1,0-.12,0-.13a3.17,3.17,0,0,0-1.92.18.48.48,0,0,1-.45-.07.46.46,0,0,1-.21-.4V188.3c-4.64.48-21.47.32-22.22.31a.51.51,0,0,1-.5-.49L180.91,149c-4.91.26-22,1.46-22.19,1.47a.5.5,0,0,1-.54-.5V123.92a.51.51,0,0,1,.26-.44l1.34-.75.09-4.27.48-8.38c-5.06.82-13.29,2.85-13.37,2.87a.51.51,0,0,1-.62-.41L143,90.32l-2.94-4.22L140,86l-2.06-5.82-.91-3-1.86,1.58a.56.56,0,0,1-.17.09c-.25.08-25.38,8.54-37.55,19.42C87.73,106.89,84,120,82.71,124.3c-.07.26-.13.47-.19.66.74.84,2.26,3.35,2.14,4.1l-.47,48.17a.66.66,0,0,1,0,.14l-2.38,8.18-.14,19.08a.47.47,0,0,1,0,.17L80.51,208a.86.86,0,0,1-.1.16c-1,1.19,0,2.75,0,2.76a.52.52,0,0,1,.09.29Z" fill="#231f20"/><path d="M81.16,204.63s14.27-6.29,41.2-8.54,82.69-.7,82.69-.7,3-2.68,2.62.42a38,38,0,0,0-.42,4.41s-67-.75-86.76,1.5C91.67,205,80,211.2,80,211.2S76.66,208.1,81.16,204.63Z" fill="#fff"/><path d="M80,211.7a.46.46,0,0,1-.33-.13,4.57,4.57,0,0,1-1.38-3.29,5.53,5.53,0,0,1,2.54-4l.1-.07c.14-.06,14.65-6.34,41.36-8.58,25.87-2.16,78.92-.81,82.55-.71.56-.46,1.86-1.41,2.73-.94s.62,1.56.57,1.94a38.83,38.83,0,0,0-.42,4.34.51.51,0,0,1-.15.36.43.43,0,0,1-.35.14c-.67,0-67.21-.72-86.71,1.5-28.35,3.23-40.16,9.36-40.27,9.42A.53.53,0,0,1,80,211.7Zm1.39-6.63a4.57,4.57,0,0,0-2.1,3.25,3.48,3.48,0,0,0,.83,2.27c2.15-1,14.38-6.41,40.28-9.37,18.67-2.12,80.21-1.57,86.34-1.51,0-.64.13-1.91.41-4,.1-.77-.05-.92-.06-.92-.18-.1-1,.31-1.74.94a.51.51,0,0,1-.35.13c-.55,0-56-1.52-82.63.7C96.7,198.74,82.41,204.64,81.42,205.07Z" fill="#231f20"/><path d="M81.31,185.48s-2.49-3.19.06-8c1.38-2.6,7.49-9.86,21-13a353.74,353.74,0,0,1,79.2-9.32s.15.84.34,1.77a22.73,22.73,0,0,1-.18,4s-50.31,1.31-71.43,6.94C83.61,174.94,81.31,185.48,81.31,185.48Z" fill="#fff"/><path d="M81.3,186a.51.51,0,0,1-.39-.19c-.11-.14-2.66-3.5,0-8.51C82.67,174,89.36,167,102.21,164a357.3,357.3,0,0,1,79.33-9.33.48.48,0,0,1,.48.41s.15.83.34,1.77a22.44,22.44,0,0,1-.17,4.1.51.51,0,0,1-.49.44c-.5,0-50.49,1.37-71.32,6.92-25.93,6.92-28.56,17.17-28.59,17.27a.49.49,0,0,1-.38.38Zm98.63-30.31A362.6,362.6,0,0,0,102.44,165c-12.51,2.94-19,9.63-20.63,12.77a7.37,7.37,0,0,0-.6,6.54c1.34-2.92,7-11.08,28.92-16.93,19.9-5.31,66.12-6.8,71.11-7a17.55,17.55,0,0,0,.14-3.36c-.11-.54-.21-1-.27-1.38Z" fill="#231f20"/><path d="M83.76,163.34s-3.91-3-2.41-7.14,2.76-11.63,19-22.76c13.61-9.35,60.06-15,60.06-15l-.09,4.56s-33.94,6.19-48.34,11.77C96.22,140.9,86.16,149.16,83.76,163.34Z" fill="#fff"/><path d="M83.76,163.84a.5.5,0,0,1-.3-.11s-4.19-3.27-2.58-7.7c.13-.37.27-.77.41-1.19,1.44-4.34,3.87-11.6,18.73-21.81,13.57-9.31,58.39-14.82,60.29-15a.52.52,0,0,1,.4.12.47.47,0,0,1,.16.38l-.09,4.56a.52.52,0,0,1-.41.48c-.34.06-34.05,6.24-48.25,11.75-17.1,6.64-25.69,15.32-27.86,28.15a.5.5,0,0,1-.31.38A.58.58,0,0,1,83.76,163.84Zm76.1-44.8c-5.36.69-46.72,6.2-59.27,14.82-14.59,10-17,17.08-18.35,21.3-.15.43-.28.84-.42,1.21a5.76,5.76,0,0,0,1.61,6c2.48-12.73,11.26-21.4,28.33-28,13.44-5.22,44.15-11,48-11.73Z" fill="#231f20"/><path d="M84.11,134.65l-.18,0a.51.51,0,0,1-.28-.65c.06-.15,6.14-15.46,20.19-24.32S136.93,95,143.57,94.23a.5.5,0,0,1,.11,1c-6.37.7-25.49,6.56-39.31,15.27s-19.73,23.68-19.79,23.83A.51.51,0,0,1,84.11,134.65Z" fill="#231f20"/><rect x="200" y="200.16" width="3.92" height="31.88" fill="#fff"/><path d="M203.92,232.54H200a.5.5,0,0,1-.5-.5V200.16a.5.5,0,0,1,.5-.5h3.92a.5.5,0,0,1,.5.5V232A.5.5,0,0,1,203.92,232.54Zm-3.42-1h2.92V200.66H200.5Z" fill="#231f20"/><path d="M197.94,232V211.72c0-3.38-3.66-6.73-8.45-6.3s-6.83,3.34-7,7.56c-.16,3.15,0,19.06,0,19.06Z" fill="#231f20"/><path d="M197.94,232.54H182.45a.5.5,0,0,1-.5-.5c0-.65-.15-16,0-19.08.24-4.85,2.84-7.63,7.5-8a8.85,8.85,0,0,1,6.78,2.18,6.42,6.42,0,0,1,2.21,4.62V232A.51.51,0,0,1,197.94,232.54Zm-15-1h14.49V211.72a5.41,5.41,0,0,0-1.88-3.88,7.91,7.91,0,0,0-6-1.93c-4.15.37-6.36,2.76-6.58,7.1C182.81,215.79,182.92,228.82,183,231.54Z" fill="#231f20"/><path d="M173,232V212.45c0-3.48-3.59-5.81-8.24-5.67s-6.12,4.78-6.05,7,0,18.22,0,18.22Z" fill="#231f20"/><path d="M173,232.53H158.67a.47.47,0,0,1-.35-.15.48.48,0,0,1-.14-.35c0-.16.07-16,0-18.2a8.35,8.35,0,0,1,2.12-5.61,6.09,6.09,0,0,1,4.41-1.93,9.73,9.73,0,0,1,7.07,2.3,5.32,5.32,0,0,1,1.67,3.86V232A.49.49,0,0,1,173,232.53Zm-13.8-1h13.31V212.45a4.34,4.34,0,0,0-1.37-3.15,8.77,8.77,0,0,0-6.36-2A5.12,5.12,0,0,0,161,208.9a7.41,7.41,0,0,0-1.86,4.9C159.23,215.84,159.18,228.79,159.16,231.54Z" fill="#231f20"/><path d="M149.32,232V214.25c0-4-1.61-7-6-6.69s-5.28,3.17-5.56,7,0,17.51,0,17.51Z" fill="#231f20"/><path d="M149.32,232.54H137.71a.51.51,0,0,1-.5-.49c0-.56-.28-13.77,0-17.55.25-3.39.95-7,6-7.43a5.78,5.78,0,0,1,4.6,1.32c1.32,1.23,2,3.2,2,5.86V232A.5.5,0,0,1,149.32,232.54Zm-11.12-1h10.62V214.25c0-2.34-.57-4.11-1.67-5.12a4.91,4.91,0,0,0-3.84-1.07c-3.91.31-4.81,2.53-5.1,6.51C138,217.9,138.15,229.06,138.2,231.54Z" fill="#231f20"/><path d="M127.66,232V213.2c0-3-2-5.64-4.78-5.07s-4.3,3-4.37,6.83,0,17.08,0,17.08Z" fill="#231f20"/><path d="M127.66,232.54h-9.15a.51.51,0,0,1-.5-.5c0-.13-.07-13.33,0-17.09.08-4,1.81-6.71,4.77-7.31a3.88,3.88,0,0,1,3.33.83,6.15,6.15,0,0,1,2,4.73V232A.5.5,0,0,1,127.66,232.54Zm-8.65-1h8.15V213.2a5.16,5.16,0,0,0-1.68-4,2.92,2.92,0,0,0-2.5-.62c-2.49.51-3.9,2.76-4,6.34C119,218.3,119,229.09,119,231.54Z" fill="#231f20"/><path d="M107.06,232c.28,0,0-14.34,0-17.79s-3.57-4.06-5.63-3.05S99,214.32,99,216.86V232Z" fill="#231f20"/><path d="M107.06,232.61H99a.57.57,0,0,1-.57-.57V216.86c0-2.51.33-5,2.76-6.18a5.09,5.09,0,0,1,4.7.17,3.74,3.74,0,0,1,1.75,3.4c0,1,0,2.75.05,4.85.16,13,.07,13.06-.21,13.34A.57.57,0,0,1,107.06,232.61Zm-7.49-1.15h7c.09-1.75,0-8.28,0-12.35,0-2.1,0-3.9,0-4.86a2.65,2.65,0,0,0-1.21-2.42,3.94,3.94,0,0,0-3.59-.11c-1.75.86-2.11,2.67-2.11,5.14Z" fill="#231f20"/><path d="M89.28,217.14c0-2.53-2.83-2.65-3.94-1.45S84.6,232,84.6,232h4.68Z" fill="#231f20"/><path d="M89.28,232.65H84.6a.62.62,0,0,1-.61-.6c-.12-4.63-.25-15.52.9-16.77a3.19,3.19,0,0,1,3.36-.74,2.63,2.63,0,0,1,1.64,2.6V232A.61.61,0,0,1,89.28,232.65Zm-4.08-1.23h3.47V217.14a1.43,1.43,0,0,0-.86-1.46,2,2,0,0,0-2,.43C85.22,216.94,85.05,224.44,85.2,231.42Z" fill="#231f20"/><rect x="175.95" y="203.6" width="3.85" height="28.44" fill="#fff"/><path d="M179.8,232.54H176a.51.51,0,0,1-.5-.5V203.6a.5.5,0,0,1,.5-.5h3.85a.5.5,0,0,1,.5.5V232A.5.5,0,0,1,179.8,232.54Zm-3.35-1h2.85V204.1h-2.85Z" fill="#231f20"/><rect x="152.32" y="202.93" width="3.85" height="29.1" fill="#fff"/><path d="M156.17,232.54h-3.85a.5.5,0,0,1-.5-.5V202.93a.5.5,0,0,1,.5-.5h3.85a.5.5,0,0,1,.51.5V232A.5.5,0,0,1,156.17,232.54Zm-3.34-1h2.84V203.44h-2.84Z" fill="#231f20"/><path d="M114.49,232.47h-3.11A.43.43,0,0,1,111,232V206.23a.44.44,0,0,1,.43-.44.44.44,0,0,1,.44.44V231.6h2.23V205.31a.44.44,0,0,1,.88,0V232A.44.44,0,0,1,114.49,232.47Z" fill="#231f20"/><path d="M134.68,232.47h-3.11a.44.44,0,0,1-.44-.43V204.16a.44.44,0,0,1,.88,0V231.6h2.23v-28a.44.44,0,0,1,.44-.44.44.44,0,0,1,.43.44V232A.43.43,0,0,1,134.68,232.47Z" fill="#231f20"/><path d="M95.25,232.47H92.14a.43.43,0,0,1-.43-.43V209.45a.44.44,0,0,1,.43-.44.44.44,0,0,1,.44.44V231.6h2.23v-23a.44.44,0,0,1,.88,0V232A.44.44,0,0,1,95.25,232.47Z" fill="#231f20"/><path d="M80.74,214.56a.5.5,0,0,1-.25-.93c8.83-5.14,25.27-8.68,48.87-10.53,19-1.49,69.75,0,70.26,0a.5.5,0,0,1,.48.51.49.49,0,0,1-.51.49c-.51,0-51.24-1.49-70.15,0C106,205.94,89.69,209.43,81,214.5A.57.57,0,0,1,80.74,214.56Z" fill="#231f20"/><path d="M84.16,129s2.9-21.48,19.15-34.26C115.84,84.87,138.41,80,138.41,80l-1.13-3.75S117,79.81,101.15,91.16c-17,12.14-19.35,34.07-19.35,34.07Z" fill="#e6e7e8"/><path d="M84.16,129.49a.49.49,0,0,1-.42-.24l-2.37-3.75a.52.52,0,0,1-.07-.32c0-.22,2.62-22.3,19.56-34.42,15.77-11.3,36.13-15,36.34-15a.49.49,0,0,1,.56.35l1.13,3.75a.51.51,0,0,1,0,.4.5.5,0,0,1-.32.23c-.23,0-22.61,5-34.9,14.64-15.9,12.51-18.93,33.72-19,33.93a.49.49,0,0,1-.39.42Zm-1.84-4.37,1.57,2.5c1-4.87,5.19-22.33,19.11-33.28,11.41-9,31.29-13.9,34.78-14.71l-.84-2.81c-3,.59-21.19,4.51-35.5,14.75C85.66,102.87,82.59,123.05,82.32,125.12Z" fill="#231f20"/><path d="M174.26,188.39l-14.54.94s.28-11.26.65-16,4.32-6.57,8.17-6.57,5.72,3.47,5.72,6.29Z" fill="#231f20"/><path d="M159.72,189.83a.5.5,0,0,1-.5-.51c0-.11.29-11.33.66-16,.42-5.18,4.92-7,8.66-7,3.89,0,6.22,3.44,6.22,6.78v15.29a.51.51,0,0,1-.47.5l-14.54.93Zm8.82-22.53c-3.48,0-7.32,1.61-7.68,6.12-.32,4-.58,13.09-.64,15.39l13.55-.88V173.1C173.77,170.86,172.35,167.3,168.54,167.3Zm5.72,21.09h0Z" fill="#231f20"/><path d="M152.32,189.8V173.28a5.32,5.32,0,0,0-7.9-4.59c-4,2.15-4.6,4.31-5,7.41s-.37,14.64-.37,14.64Z" fill="#231f20"/><path d="M139.07,191.23a.47.47,0,0,1-.34-.13.48.48,0,0,1-.15-.36c0-.47,0-11.61.37-14.7s1-5.51,5.24-7.79a5.68,5.68,0,0,1,5.72.06,5.94,5.94,0,0,1,2.91,5V189.8a.49.49,0,0,1-.46.49l-13.26.94Zm8-22.74a5.09,5.09,0,0,0-2.4.63c-3.85,2.06-4.35,4-4.72,7-.32,2.66-.36,11.76-.37,14.05l12.27-.87V173.28a5,5,0,0,0-2.43-4.13A4.57,4.57,0,0,0,147.05,168.49Zm5.27,21.31h0Z" fill="#231f20"/><path d="M131.47,191.68s.55-18.58-1.23-20.93-10.86-1.69-11.48,4.6,0,17.27,0,17.27Z" fill="#231f20"/><path d="M118.76,193.11a.5.5,0,0,1-.33-.12.46.46,0,0,1-.16-.34c0-.11-.62-11.1,0-17.35.28-2.85,2.26-5,5.42-5.9,2.84-.8,5.89-.34,6.94,1,1.84,2.42,1.39,19.32,1.33,21.24a.48.48,0,0,1-.45.48l-12.72.94ZM126.51,170a9.49,9.49,0,0,0-2.55.36c-1.3.37-4.37,1.6-4.71,5.05a141.27,141.27,0,0,0,0,16.69l11.77-.87c.2-7.41.07-18.58-1.14-20.17A4.42,4.42,0,0,0,126.51,170Zm5,21.69h0Z" fill="#231f20"/><path d="M113.59,193.44c.09-.28-.6-12.1-.87-15.21-.4-4.66-8-4.69-9-.19s-.49,17-.49,17Z" fill="#231f20"/><path d="M103.22,195.53a.52.52,0,0,1-.32-.11.5.5,0,0,1-.18-.36c0-.52-.53-12.61.51-17.13a5.1,5.1,0,0,1,5.57-3.71,4.39,4.39,0,0,1,4.41,4c.14,1.66,1,14.91.84,15.41a.51.51,0,0,1-.39.33l-10.37,1.59Zm5.16-20.34a4.07,4.07,0,0,0-4.19,3c-.88,3.86-.59,13.86-.5,16.31L113.1,193c0-2.06-.62-11.84-.87-14.75a3.49,3.49,0,0,0-3.5-3.07Zm5.21,18.25h0Zm0,0h0Z" fill="#231f20"/><path d="M98.4,195.9s.09-13.89,0-16.14-3.66-.56-4.22,2.63-.38,15-.38,15Z" fill="#231f20"/><path d="M93.8,197.9a.47.47,0,0,1-.28-.09.5.5,0,0,1-.21-.4c0-.48-.18-11.91.38-15.11.43-2.4,2.44-4.15,3.9-4.06a1.4,1.4,0,0,1,1.3,1.5c.1,2.24,0,15.6,0,16.17a.48.48,0,0,1-.34.46l-4.6,1.5Zm3.67-18.68c-.79,0-2.45,1.22-2.81,3.25-.47,2.68-.4,11.72-.37,14.26l3.62-1.19c0-2.18.08-13.75,0-15.76,0-.53-.27-.55-.39-.56Zm.93,16.68h0Z" fill="#231f20"/><path d="M89,198.53s.4-12.11,0-13.8-3.5-.79-3.78,1.63,0,14.14,0,14.14Z" fill="#231f20"/><path d="M85.17,201a.54.54,0,0,1-.25-.06.49.49,0,0,1-.24-.42c0-.48-.28-11.79,0-14.21a3.29,3.29,0,0,1,2.95-2.92,1.61,1.61,0,0,1,1.8,1.24c.41,1.73,0,13.43,0,13.93a.49.49,0,0,1-.26.42l-3.78,2A.46.46,0,0,1,85.17,201Zm2.6-16.63h-.08a2.33,2.33,0,0,0-2,2c-.23,2-.07,10.62,0,13.29l2.82-1.47c.11-3.55.31-12.09,0-13.38A.63.63,0,0,0,87.77,184.36ZM89,198.53h0Z" fill="#231f20"/><path d="M153,151.44s1-14.74-.65-18.32c-1.26-2.77-7.25-3.85-9.78,1s-1.88,18.67-1.88,18.67Z" fill="#231f20"/><path d="M140.66,153.32a.49.49,0,0,1-.32-.12.53.53,0,0,1-.17-.35c0-.57-.63-14,1.93-18.93a6.39,6.39,0,0,1,6-3.64,5.25,5.25,0,0,1,4.71,2.63c1.68,3.66.73,18,.69,18.56a.49.49,0,0,1-.43.46l-12.31,1.38Zm7.23-22.06a5.43,5.43,0,0,0-4.91,3.12c-2.17,4.17-1.93,15.34-1.84,17.9L152.51,151c.14-2.39.79-14.56-.63-17.67a4.34,4.34,0,0,0-3.85-2.06ZM153,151.44h0Z" fill="#231f20"/><path d="M134.38,154.14s.49-13.09,0-16.19-4.72-4.65-7.61-1.27-2.67,6.41-2.81,9.43-.28,10.37-.28,10.37Z" fill="#231f20"/><path d="M123.68,157a.52.52,0,0,1-.32-.11.54.54,0,0,1-.18-.4c0-.07.15-7.38.29-10.38l0-.92c.1-2.78.2-5.64,2.9-8.81a5.2,5.2,0,0,1,5.36-1.91,4.25,4.25,0,0,1,3.1,3.42c.5,3.11,0,15.75,0,16.29a.5.5,0,0,1-.39.46L123.78,157Zm6.85-21.71a4.52,4.52,0,0,0-3.38,1.73c-2.48,2.9-2.57,5.48-2.66,8.2,0,.31,0,.62,0,.94-.12,2.47-.23,7.89-.27,9.73l9.72-2.13c.07-2.17.42-13,0-15.71a3.27,3.27,0,0,0-2.39-2.63A3.6,3.6,0,0,0,130.53,135.27Zm3.85,18.87h0Z" fill="#231f20"/><path d="M120,157.55s-.67-10.38-.67-13.2-1.41-5.77-4.29-4.5-3.52,2.81-3.8,5.56-.34,13.7-.34,13.7Z" fill="#231f20"/><path d="M110.88,159.6a.52.52,0,0,1-.32-.11.53.53,0,0,1-.18-.38c0-.45.07-11,.35-13.75.29-2.89,1-4.61,4.09-6a3,3,0,0,1,3,.1c1.46.95,2,3.13,2,4.85,0,2.77.67,13.07.67,13.17a.49.49,0,0,1-.41.52L111,159.6ZM116.32,140a2.79,2.79,0,0,0-1.1.26c-2.67,1.17-3.24,2.54-3.51,5.16-.24,2.33-.32,10.76-.34,13.07l8.09-1.39c-.13-2-.64-10.28-.64-12.79,0-1.83-.6-3.42-1.54-4A1.72,1.72,0,0,0,116.32,140Z" fill="#231f20"/><path d="M106.29,159.86s.14-6,.35-9.86-1.41-8.18-3.8-5.43-2.18,4.29-2.32,6.61-.28,10.59-.28,10.59Z" fill="#231f20"/><path d="M100.24,162.26a.47.47,0,0,1-.3-.1.48.48,0,0,1-.2-.4c0-.34.15-8.3.29-10.61l0-.74a8.41,8.41,0,0,1,2.41-6.17c1-1.16,1.89-1.14,2.44-.92,1.64.67,2.37,4,2.22,6.71-.2,3.83-.35,9.79-.35,9.85a.47.47,0,0,1-.34.45l-6.06,1.91Zm4.06-18.07a1.62,1.62,0,0,0-1.09.7,7.41,7.41,0,0,0-2.16,5.57c0,.24,0,.49,0,.75-.12,1.9-.23,7.85-.27,9.88l5.07-1.59c0-1.34.16-6.22.34-9.53.14-2.65-.61-5.33-1.61-5.73A.69.69,0,0,0,104.3,144.19Zm2,15.67h0Z" fill="#231f20"/><path d="M97.07,162.87c.14-.28,0-8.38,0-11.41s-2.25-3.89-3.24-1.38a10,10,0,0,0-1,5.08c-.08,2.57,0,9.21,0,9.21Z" fill="#231f20"/><path d="M92.85,164.86a.52.52,0,0,1-.29-.09.49.49,0,0,1-.21-.4c0-.06-.07-6.67,0-9.22l0-.51a9.66,9.66,0,0,1,1-4.74c.59-1.5,1.59-1.89,2.32-1.75.93.17,1.87,1.27,1.87,3.31,0,.94,0,2.35,0,3.87.07,7.09,0,7.53-.08,7.76a.51.51,0,0,1-.28.24L93,164.83A.45.45,0,0,1,92.85,164.86ZM95.4,149.1c-.41,0-.83.43-1.11,1.16a8.93,8.93,0,0,0-.94,4.41v.51c-.06,2,0,6.73,0,8.49l3.28-1.17c0-1,0-4.51,0-7.16,0-1.52,0-2.94,0-3.88,0-1.41-.54-2.25-1.07-2.35Zm1.67,13.77h0Zm0,0h0Z" fill="#231f20"/><path d="M90.38,165.4v-9.57c0-2.33-2.67-1.13-3.45,2s0,10.13,0,10.13Z" fill="#231f20"/><path d="M86.93,168.49a.65.65,0,0,1-.19,0,.48.48,0,0,1-.3-.4c0-.29-.77-7.08,0-10.3.59-2.41,2.16-3.74,3.27-3.62.27,0,1.15.25,1.15,1.7v9.57a.48.48,0,0,1-.19.39l-3.45,2.6A.54.54,0,0,1,86.93,168.49Zm2.63-13.38c-.52,0-1.68,1-2.15,2.88-.58,2.39-.25,7.13-.07,9.08l2.55-1.92v-9.32c0-.16,0-.69-.29-.72Zm.82,10.29h0Z" fill="#231f20"/><path d="M110.1,127.79a.49.49,0,0,1-.49-.49V98.11a.5.5,0,0,1,1,0V127.3A.49.49,0,0,1,110.1,127.79Z" fill="#231f20"/><path d="M100.24,132.48a.49.49,0,0,1-.5-.49V104.77a.5.5,0,0,1,1,0V132A.49.49,0,0,1,100.24,132.48Z" fill="#231f20"/><path d="M92.81,137.55a.49.49,0,0,1-.49-.49V112.28a.5.5,0,0,1,1,0v24.78A.49.49,0,0,1,92.81,137.55Z" fill="#231f20"/><path d="M87.73,141.4a.49.49,0,0,1-.49-.5V120.45a.49.49,0,1,1,1,0V140.9A.49.49,0,0,1,87.73,141.4Z" fill="#231f20"/><path d="M123.68,122.53a.42.42,0,0,1-.22,0,.47.47,0,0,1-.26-.56c.12-1,.06-18.52,0-30.1a.49.49,0,0,1,.49-.49h0a.48.48,0,0,1,.49.49c.19,30,0,30.31,0,30.44A.5.5,0,0,1,123.68,122.53Z" fill="#231f20"/><path d="M139,119.72a.49.49,0,0,1-.49-.5V87.41a.5.5,0,0,1,1,0v31.81A.5.5,0,0,1,139,119.72Z" fill="#231f20"/><path d="M113.87,115.8c0-.19,0-7.79,0-7.79s3.94-2.3,3.94-2.16-.19,8.59-.19,8.59Z" fill="#231f20"/><path d="M113.87,116.29a.5.5,0,0,1-.33-.12.53.53,0,0,1-.16-.44c0-.39,0-4.82,0-7.72a.51.51,0,0,1,.24-.43c4.07-2.37,4.13-2.34,4.43-2.16a.48.48,0,0,1,.25.43c0,.14-.17,7.73-.18,8.6a.51.51,0,0,1-.33.45L114,116.26A.51.51,0,0,1,113.87,116.29Zm.49-8c0,4,0,5.91,0,6.8l2.76-1c0-1.25.12-5.65.16-7.46C116.61,107,115.46,107.66,114.36,108.29Z" fill="#231f20"/><polygon points="94.96 128.24 94.96 120.44 96.69 118.71 96.69 126.55 94.96 128.24" fill="#231f20"/><path d="M95,128.73a.58.58,0,0,1-.19,0,.5.5,0,0,1-.31-.46v-7.78a.49.49,0,0,1,.15-.35l1.74-1.74a.49.49,0,0,1,.84.35v7.83a.51.51,0,0,1-.15.36l-1.74,1.69A.49.49,0,0,1,95,128.73Zm.49-8.08v6.42l.75-.73V119.9Z" fill="#231f20"/><path d="M223.28,190.18V176.8c0-3-3.1-5.77-6.9-5s-6,2-6.41,3.87,0,14.5,0,14.5Z" fill="#231f20"/><path d="M223.28,190.68H210a.51.51,0,0,1-.5-.49c0-.52-.42-12.75,0-14.62.46-2,2.69-3.42,6.79-4.25a6.45,6.45,0,0,1,5.4,1.26,5.5,5.5,0,0,1,2.1,4.22v13.38A.51.51,0,0,1,223.28,190.68Zm-12.82-1h12.32V176.8a4.47,4.47,0,0,0-1.73-3.44,5.4,5.4,0,0,0-4.57-1.06c-3.63.74-5.65,1.91-6,3.49C210.14,177.18,210.34,185.86,210.46,189.68Z" fill="#231f20"/><path d="M237.47,208.5h0a6.71,6.71,0,0,1,6.71,6.71V232a0,0,0,0,1,0,0H230.76a0,0,0,0,1,0,0V215.21A6.71,6.71,0,0,1,237.47,208.5Z" fill="#231f20"/><path d="M244.18,232.54H230.76a.51.51,0,0,1-.5-.5V215.21a7.21,7.21,0,0,1,14.42,0V232A.5.5,0,0,1,244.18,232.54Zm-12.92-1h12.42V215.21a6.21,6.21,0,0,0-12.42,0Z" fill="#231f20"/><path d="M262.56,229.53V214.74c0-4.08,2.37-5.12,5.27-5.13,3.17,0,4,2.67,4.16,4.85s0,15.28,0,15.28Z" fill="#231f20"/><path d="M272,230.25h0l-9.44-.21a.52.52,0,0,1-.5-.51V214.74c0-3.77,1.9-5.62,5.79-5.65h0c2.76,0,4.4,1.9,4.63,5.34.14,2.18,0,14.78,0,15.31a.48.48,0,0,1-.16.36A.47.47,0,0,1,272,230.25ZM263.07,229l8.41.18c0-2.44.12-12.82,0-14.71s-.86-4.38-3.61-4.38h0c-3.3,0-4.77,1.44-4.77,4.62Z" fill="#231f20"/><path d="M276.28,229.74V213.69c0-4.08,7.89-4.58,8-.72.13,4-.12,16.77-.12,16.77Z" fill="#231f20"/><path d="M284.17,230.25h-7.89a.51.51,0,0,1-.51-.51V213.69c0-2.49,2.42-3.83,4.82-3.87,2,0,4.14.93,4.21,3.14.13,4-.12,16.66-.12,16.79A.52.52,0,0,1,284.17,230.25Zm-7.38-1h6.87c0-2.4.23-12.74.12-16.24,0-1.52-1.6-2.17-3.18-2.14-1.89,0-3.81,1-3.81,2.84Z" fill="#231f20"/><path d="M276.28,200.31v-15.1c0-3.84,7.89-4.3,8-.67s-.12,15.77-.12,15.77Z" fill="#231f20"/><path d="M284.17,200.81h-7.89a.49.49,0,0,1-.49-.5v-15.1c0-2.34,2.4-3.6,4.78-3.64,2.05,0,4.14.86,4.22,3,.13,3.74-.13,15.68-.13,15.8A.5.5,0,0,1,284.17,200.81Zm-7.39-1h6.9c.05-2.29.23-12,.12-15.26-.05-1.42-1.65-2.06-3.21-2-1.89,0-3.81.95-3.81,2.65Z" fill="#231f20"/><path d="M261.92,200.31V184.26c0-4.08,9.07-4.49,9.24-.63.18,4,.48,16.68.48,16.68Z" fill="#231f20"/><path d="M271.64,200.91h-9.72a.59.59,0,0,1-.59-.6V184.26c0-2.48,2.72-3.84,5.41-3.9,2.43-.07,4.91.93,5,3.25.18,4,.48,16.56.48,16.69a.63.63,0,0,1-.17.43A.6.6,0,0,1,271.64,200.91Zm-9.12-1.19H271c-.06-2.58-.31-12.61-.46-16.06-.07-1.51-2.05-2.17-3.8-2.11-2.12,0-4.25,1-4.25,2.71Z" fill="#231f20"/><path d="M289.09,229.74V215c0-2.94,1.83-4,3.59-4.07s3.45,1.53,3.66,4.07,0,14.73,0,14.73Z" fill="#231f20"/><path d="M296.34,230.25h-7.25a.51.51,0,0,1-.51-.51V215c0-3.25,2.11-4.5,4.08-4.58,2.15-.1,4,1.87,4.19,4.54s0,14.28,0,14.78A.51.51,0,0,1,296.34,230.25Zm-6.74-1h6.24c0-2.32.18-12,0-14.17-.2-2.42-1.76-3.66-3.13-3.61-.93,0-3.1.46-3.1,3.56Z" fill="#231f20"/><path d="M289.09,200.31V187.88c0-2.49,1.83-3.38,3.59-3.44a3.64,3.64,0,0,1,3.66,3.44c.21,2.15,0,13.84,0,13.84Z" fill="#231f20"/><path d="M296.34,202.19h-.09L289,200.77a.46.46,0,0,1-.38-.46V187.88c0-2.78,2.09-3.84,4.05-3.91a4.09,4.09,0,0,1,4.14,3.86c.21,2.16,0,13.42,0,13.9a.46.46,0,0,1-.17.36A.47.47,0,0,1,296.34,202.19Zm-6.78-2.26,6.32,1.22c0-2.35.18-11.39,0-13.22a3.2,3.2,0,0,0-3.18-3,2.9,2.9,0,0,0-3.14,3Z" fill="#231f20"/><path d="M301,229.74V214.67c0-2.39,2.75-4.43,4.08-1.83s.78,16.9.78,16.9Z" fill="#231f20"/><path d="M305.88,230.25H301a.51.51,0,0,1-.51-.51V214.67a3.64,3.64,0,0,1,2.45-3.49,2.29,2.29,0,0,1,2.6,1.43c1.36,2.65.89,15.67.83,17.15A.52.52,0,0,1,305.88,230.25Zm-4.35-1h3.86c.14-4.27.27-14.19-.74-16.15-.26-.51-.72-1.08-1.45-.91a2.62,2.62,0,0,0-1.67,2.5Z" fill="#231f20"/><path d="M301,202.56V189.39c0-1.83,2.75-3.39,4.08-1.4s.78,16,.78,16Z" fill="#231f20"/><path d="M305.88,204.41l-.13,0L300.9,203a.44.44,0,0,1-.32-.42V189.39a3,3,0,0,1,2.11-2.66,2.39,2.39,0,0,1,2.78,1c1.38,2,.91,14.79.85,16.24a.44.44,0,0,1-.18.35A.5.5,0,0,1,305.88,204.41Zm-4.41-2.19,4,1.16c.21-5.58.17-13.82-.72-15.14a1.49,1.49,0,0,0-1.78-.65,2.05,2.05,0,0,0-1.48,1.8Z" fill="#231f20"/><path d="M309,205.08V191.91c0-1.82,2.74-3.38,4.08-1.39s.78,16,.78,16Z" fill="#231f20"/><path d="M313.89,206.94l-.13,0-4.86-1.41a.44.44,0,0,1-.32-.43V191.91a3,3,0,0,1,2.12-2.65,2.38,2.38,0,0,1,2.78,1c1.38,2,.91,14.79.85,16.24a.42.42,0,0,1-.18.34A.43.43,0,0,1,313.89,206.94Zm-4.41-2.19,4,1.15c.2-5.57.17-13.81-.72-15.13a1.48,1.48,0,0,0-1.78-.65,2.05,2.05,0,0,0-1.48,1.79Z" fill="#231f20"/><path d="M309.86,229.74V215.45c0-2,2-3.52,3.59-1.69s1.12,16,1.12,16Z" fill="#231f20"/><path d="M314.57,230.25h-4.71a.51.51,0,0,1-.51-.51V215.45a3,3,0,0,1,1.81-2.9,2.36,2.36,0,0,1,2.68.88c1.59,1.88,1.31,13.93,1.24,16.32A.51.51,0,0,1,314.57,230.25Zm-4.2-1h3.71c.13-5.44,0-13.95-1-15.14a1.38,1.38,0,0,0-1.55-.58,2,2,0,0,0-1.14,1.94Z" fill="#231f20"/><path d="M253.12,155.33l-4.5-.49V162s3.46-.14,4.76,0Z" fill="#231f20"/><path d="M248.62,162.53a.51.51,0,0,1-.37-.15.55.55,0,0,1-.16-.38v-7.16a.52.52,0,0,1,.17-.39.6.6,0,0,1,.42-.14l4.5.5a.53.53,0,0,1,.47.5l.26,6.64a.53.53,0,0,1-.16.41.58.58,0,0,1-.42.14c-1.25-.11-4.66,0-4.69,0Zm.53-7.1v6c.86,0,2.55-.08,3.68,0l-.22-5.6Z" fill="#231f20"/><path d="M280.72,166.81v-6.13a20.76,20.76,0,0,0,3.61,1.1v5.59Z" fill="#231f20"/><path d="M284.33,167.9h-.08l-3.62-.57a.53.53,0,0,1-.44-.52v-6.13a.5.5,0,0,1,.23-.43.53.53,0,0,1,.49-.06,19,19,0,0,0,3.47,1.06.53.53,0,0,1,.48.53v5.59a.51.51,0,0,1-.19.4A.48.48,0,0,1,284.33,167.9Zm-3.08-1.55,2.55.4v-4.52a21.82,21.82,0,0,1-2.55-.78Z" fill="#231f20"/><path d="M303,174.34v-5.56s2.2.85,3,1.27v5.7Z" fill="#231f20"/><path d="M306,176.28a.59.59,0,0,1-.23-.05l-3-1.41a.55.55,0,0,1-.3-.48v-5.56a.54.54,0,0,1,.23-.44.51.51,0,0,1,.49-.05c.09,0,2.24.87,3,1.3a.53.53,0,0,1,.28.46v5.7a.55.55,0,0,1-.25.45A.6.6,0,0,1,306,176.28ZM303.56,174l1.91.91v-4.53c-.52-.25-1.33-.59-1.91-.82Z" fill="#231f20"/><polygon points="39.4 238.98 84.54 236.92 188.15 236.92 142.54 254.18 39.4 254.18 39.4 238.98" fill="#e6e7e8"/><path d="M142.54,254.68H39.4a.5.5,0,0,1-.5-.5V239a.5.5,0,0,1,.48-.5l45.14-2.06H188.15a.5.5,0,0,1,.5.41.49.49,0,0,1-.32.55l-45.61,17.26A.39.39,0,0,1,142.54,254.68Zm-102.64-1H142.45l43-16.26H84.54l-44.64,2Z" fill="#231f20"/><polygon points="245.73 253.54 228.36 235.09 360.6 234.36 360.6 254.18 245.73 253.54" fill="#d1d3d4"/><path d="M360.6,254.68h0L245.73,254a.48.48,0,0,1-.36-.16L228,235.44a.49.49,0,0,1-.1-.54.51.51,0,0,1,.46-.31l132.24-.73a.59.59,0,0,1,.35.14.49.49,0,0,1,.15.36v19.82a.47.47,0,0,1-.15.35A.51.51,0,0,1,360.6,254.68ZM246,253l114.15.63V234.86l-130.59.73Z" fill="#231f20"/><path d="M360.6,250.18a.45.45,0,0,1-.25-.07c-.08,0-7.76-4.48-22.85-6.51-12.64-1.7-33.66-6.32-40.56-7.83l-2.52-.55h0a.47.47,0,0,1-.47-.49.51.51,0,0,1,.54-.5c.09,0,.16,0,2.66.56,6.9,1.52,27.89,6.13,40.48,7.82,15.32,2.06,22.91,6.45,23.23,6.64a.5.5,0,0,1,.17.68A.5.5,0,0,1,360.6,250.18Z" fill="#231f20"/><path d="M48.14,218.29a.51.51,0,0,1-.31-.11.5.5,0,0,1-.07-.71,7.12,7.12,0,0,1,7.37-2.27c.33.09.63.18.78.1a1.16,1.16,0,0,0,.3-.5,9.18,9.18,0,0,1,12-4.58.49.49,0,0,1,.23.66.5.5,0,0,1-.67.24,8.19,8.19,0,0,0-10.65,4,1.83,1.83,0,0,1-.75,1,1.88,1.88,0,0,1-1.49,0,6.15,6.15,0,0,0-6.38,1.94A.5.5,0,0,1,48.14,218.29Z" fill="#231f20"/><path d="M337.5,228.09a.53.53,0,0,1-.34-.13,8.78,8.78,0,0,0-2.52-1.84,2.64,2.64,0,0,0-2.63.22.52.52,0,0,1-.52.08.48.48,0,0,1-.3-.41,2.92,2.92,0,0,0-1.54-2.18,2.88,2.88,0,0,0-2.66-.17.51.51,0,0,1-.67-.23.5.5,0,0,1,.23-.67,3.86,3.86,0,0,1,3.59.2,4,4,0,0,1,1.88,2.21,3.87,3.87,0,0,1,3,0,9.84,9.84,0,0,1,2.83,2,.5.5,0,0,1-.34.87Z" fill="#231f20"/><path d="M344.33,229.13h-.06A3.17,3.17,0,0,1,341.7,227a.49.49,0,0,1,.1-.49,26.69,26.69,0,0,1,9.74-6.86.5.5,0,0,1,.38.93,25.51,25.51,0,0,0-9.16,6.36,2.18,2.18,0,0,0,1.64,1.16.5.5,0,0,1-.07,1Z" fill="#231f20"/><path d="M68.21,230.25a.49.49,0,0,1-.48-.36A2.87,2.87,0,0,0,64.32,228a6.9,6.9,0,0,0-.75.3,4.19,4.19,0,0,1-1.6.46,4.29,4.29,0,0,1-2.4-1l-.5-.33a6.61,6.61,0,0,0-7.6.66.51.51,0,0,1-.46.11.48.48,0,0,1-.34-.32,6.3,6.3,0,0,0-8.53-3.24.5.5,0,0,1-.68-.2.51.51,0,0,1,.2-.68,7,7,0,0,1,5.79-.26A7.07,7.07,0,0,1,51.34,227a7.68,7.68,0,0,1,8.25-.33l.54.35a3.6,3.6,0,0,0,1.82.8,3.36,3.36,0,0,0,1.22-.38,9,9,0,0,1,.86-.34,3.8,3.8,0,0,1,2.84.35,3.75,3.75,0,0,1,1.82,2.2.51.51,0,0,1-.34.62Z" fill="#231f20"/></g></svg>